<svg xmlns="http://www.w3.org/2000/svg" width="64" height="64" viewBox="0 0 64 64" fill="none">
  <defs>
    <linearGradient id="doclens-mark-bg" x1="11" y1="6" x2="52" y2="58" gradientUnits="userSpaceOnUse">
      <stop stop-color="#F7FAFB" />
      <stop offset="1" stop-color="#DDE8ED" />
    </linearGradient>
    <radialGradient id="doclens-mark-glow" cx="0" cy="0" r="1" gradientUnits="userSpaceOnUse" gradientTransform="translate(21 17) rotate(49.7648) scale(24.7937)">
      <stop stop-color="#FFFFFF" stop-opacity="0.9" />
      <stop offset="1" stop-color="#FFFFFF" stop-opacity="0" />
    </radialGradient>
    <linearGradient id="doclens-page-fill" x1="22" y1="14" x2="44" y2="47" gradientUnits="userSpaceOnUse">
      <stop stop-color="#FFFFFF" />
      <stop offset="1" stop-color="#EEF4F7" />
    </linearGradient>
    <linearGradient id="doclens-fold-fill" x1="38.25" y1="16.5" x2="46" y2="23.75" gradientUnits="userSpaceOnUse">
      <stop stop-color="#ECF4F7" />
      <stop offset="1" stop-color="#D4E3E9" />
    </linearGradient>
    <filter id="doclens-mark-shadow" x="0.5" y="1" width="63" height="63" filterUnits="userSpaceOnUse" color-interpolation-filters="sRGB">
      <feFlood flood-opacity="0" result="BackgroundImageFix" />
      <feColorMatrix in="SourceAlpha" type="matrix" values="0 0 0 0 0 0 0 0 0 0 0 0 0 0 0 0 0 0 127 0" result="hardAlpha" />
      <feOffset dy="2" />
      <feGaussianBlur stdDeviation="1.75" />
      <feColorMatrix type="matrix" values="0 0 0 0 0.0627451 0 0 0 0 0.0941176 0 0 0 0 0.12549 0 0 0 0.12 0" />
      <feBlend mode="normal" in2="BackgroundImageFix" result="effect1_dropShadow_0_1" />
      <feBlend mode="normal" in="SourceGraphic" in2="effect1_dropShadow_0_1" result="shape" />
    </filter>
  </defs>
  <g filter="url(#doclens-mark-shadow)">
    <rect x="4" y="3" width="56" height="56" rx="18" fill="url(#doclens-mark-bg)" />
    <rect x="4.75" y="3.75" width="54.5" height="54.5" rx="17.25" stroke="#D4E0E6" stroke-width="1.5" />
    <path d="M4 21C12.5108 10.2474 22.2828 5.82644 33.3163 7.73727C44.3498 9.64811 53.2444 8.06853 60 3V24.2812C41.5823 21.776 22.9166 20.6822 4 21Z" fill="url(#doclens-mark-glow)" />
    <path d="M21.25 14H38.818L47.25 22.432V42.75C47.25 45.6495 44.8995 48 42 48H21.25C18.3505 48 16 45.6495 16 42.75V19.25C16 16.3505 18.3505 14 21.25 14Z" fill="url(#doclens-page-fill)" stroke="#D4DEE4" stroke-width="1.25" />
    <path d="M38.25 14.5L46.75 23H40.75C39.3693 23 38.25 21.8807 38.25 20.5V14.5Z" fill="url(#doclens-fold-fill)" stroke="#D4DEE4" stroke-width="1.25" stroke-linejoin="round" />
    <path d="M22 20.5H34.5" stroke="#D9E5EA" stroke-width="2" stroke-linecap="round" />
    <path d="M22 25H30.5" stroke="#DFE9EE" stroke-width="2" stroke-linecap="round" />
    <circle cx="28.5" cy="33.5" r="9.75" fill="#F3FAFC" stroke="#4D8294" stroke-width="2.75" />
    <circle cx="28.5" cy="33.5" r="4.25" fill="#E7F2F5" stroke="#88B8C4" stroke-width="1.5" />
    <path d="M35 40L40 45" stroke="#4D8294" stroke-width="3.2" stroke-linecap="round" />
  </g>
</svg>
